<svg xmlns="http://www.w3.org/2000/svg" viewBox="0 0 60 60" fill="none">
  <rect width="60" height="60" rx="12" fill="#059669" fill-opacity="0.06"/>
  <path d="M20 40c0 0 2-8 4-12s4-8 6-10c2 2 4 6 6 10s4 12 4 12" fill="none" stroke="#059669" stroke-width="1.5" stroke-linecap="round"/>
  <path d="M24 38c0-3 2-6 6-6s6 3 6 6" fill="none" stroke="#059669" stroke-width="1.2"/>
  <ellipse cx="30" cy="22" rx="4" ry="3" fill="#059669" fill-opacity="0.2" stroke="#059669" stroke-width="1"/>
  <path d="M30 14v4" stroke="#059669" stroke-width="1.2" stroke-linecap="round"/>
  <path d="M26 16l4-2 4 2" fill="none" stroke="#059669" stroke-width="1" stroke-linecap="round"/>
  <path d="M16 42h28" stroke="#059669" stroke-width="1.5" stroke-linecap="round"/>
  <rect x="18" y="44" width="6" height="2" rx="1" fill="#059669" fill-opacity="0.3"/>
  <rect x="27" y="44" width="6" height="2" rx="1" fill="#059669" fill-opacity="0.3"/>
  <rect x="36" y="44" width="6" height="2" rx="1" fill="#059669" fill-opacity="0.3"/>
  <text x="30" y="54" text-anchor="middle" font-size="5" fill="#059669" font-family="Inter, sans-serif" font-weight="600">ML CLASSIFY</text>
</svg>