<svg xmlns="http://www.w3.org/2000/svg" viewBox="0 0 40 40" fill="none">
  <rect width="40" height="40" rx="8" fill="#FF9900" fill-opacity="0.1"/>
  <path d="M14.5 20.5c0 .5.1.9.2 1.2.1.3.3.6.5.9.1.1.1.2.1.3 0 .1-.1.2-.3.4l-1 .6c-.1.1-.3.1-.4.1-.1 0-.2-.1-.3-.2-.2-.2-.4-.5-.5-.7-.1-.3-.3-.5-.5-.8-1.2 1.4-2.7 2.1-4.5 2.1-1.3 0-2.3-.4-3-1.1-.8-.7-1.1-1.7-1.1-2.8 0-1.3.4-2.3 1.4-3 .9-.8 2.2-1.2 3.7-1.2.5 0 1.1 0 1.6.1.6.1 1.1.2 1.7.3v-1.1c0-1.1-.2-1.9-.7-2.4-.5-.5-1.3-.7-2.4-.7-.5 0-1.1.1-1.6.2-.6.2-1.1.3-1.6.6-.2.1-.4.2-.5.2h-.2c-.2 0-.3-.1-.3-.4v-.7c0-.2 0-.4.1-.4.1-.1.2-.2.4-.3.5-.3 1.2-.5 1.9-.7.7-.2 1.5-.3 2.3-.3 1.7 0 3 .4 3.8 1.2.7.8 1.1 2 1.1 3.6v4.7z" fill="#FF9900"/>
  <path d="M30.2 25.5c-3.5 2.6-8.6 4-13 4-6.1 0-11.7-2.3-15.8-6.1-.3-.3 0-.7.4-.5 4.5 2.6 10 4.2 15.7 4.2 3.9 0 8.1-.8 12-2.4.6-.3 1.1.4.5.8z" fill="#FF9900"/>
  <path d="M31.8 23.7c-.5-.6-3-.3-4.2-.1-.4 0-.4-.3-.1-.5 2-1.4 5.4-1 5.8-.5.4.5-.1 3.8-2 5.4-.3.2-.6.1-.5-.2.5-1.1 1.4-3.6 1-4.1z" fill="#FF9900"/>
</svg>