<svg xmlns="http://www.w3.org/2000/svg" viewBox="0 0 40 40" fill="none">
  <rect width="40" height="40" rx="8" fill="#2496ED" fill-opacity="0.1"/>
  <path d="M32 18.5c-.5-.3-1.5-.5-2.3-.3-.2-1.2-.8-2.2-1.7-3l-.5-.3-.3.4c-.5.7-.7 1.7-.6 2.5.1.6.3 1.2.7 1.6-.4.2-.8.4-1.2.5-.6.2-1.3.3-2 .3H8.2l-.1.5c-.1 1.5.2 3 .9 4.3.8 1.4 2 2.3 3.5 2.8 1.7.6 3.7.7 5.5.4 1.4-.2 2.7-.7 3.8-1.5 1-.7 1.8-1.6 2.5-2.7.7.1 1.5.2 2.2 0 .9-.2 1.7-.7 2.2-1.4l.3-.4-.5-.3zm-21-1.5h2.5v2.5H11V17zm3 0h2.5v2.5H14V17zm0-3h2.5v2.5H14V14zm3 3h2.5v2.5H17V17zm0-3h2.5v2.5H17V14zm3 3h2.5v2.5H20V17zm0-3h2.5v2.5H20V14zm3 3h2.5v2.5H23V17z" fill="#2496ED"/>
</svg>