<svg xmlns="http://www.w3.org/2000/svg" viewBox="0 0 40 40" fill="none">
  <rect width="40" height="40" rx="8" fill="#F05032" fill-opacity="0.1"/>
  <path d="M31.4 18.7l-10.1-10.1c-.8-.8-2-.8-2.8 0L16 11.1l3.6 3.6c.8-.3 1.8-.1 2.4.5.7.7.8 1.6.5 2.4l3.4 3.4c.8-.3 1.8-.1 2.5.5.9.9.9 2.4 0 3.3-.9.9-2.4.9-3.3 0-.7-.7-.9-1.8-.5-2.6l-3.2-3.2v8.4c.2.1.4.3.6.5.9.9.9 2.4 0 3.3-.9.9-2.4.9-3.3 0-.9-.9-.9-2.4 0-3.3.3-.3.5-.4.8-.5v-8.5c-.3-.1-.6-.3-.8-.5-.7-.7-.9-1.8-.5-2.6L15 12.4 8.6 18.7c-.8.8-.8 2 0 2.8l10.1 10.1c.8.8 2 .8 2.8 0l9.9-10.1c.8-.8.8-2 0-2.8z" fill="#F05032"/>
</svg>