<svg xmlns="http://www.w3.org/2000/svg" viewBox="0 0 40 40" fill="none">
  <rect width="40" height="40" rx="8" fill="#00ADD8" fill-opacity="0.1"/>
  <path d="M10 20.5c0-.3.1-.4.4-.4h8.3c.3 0 .3.2.2.4l-.3.5c-.1.2-.4.4-.6.4h-7.7c-.3 0-.3-.2-.3-.4v-.5zm-2.5 2.3c0-.3.1-.4.4-.4h10.6c.3 0 .3.2.2.4l-.2.5c-.1.2-.3.4-.6.4H8c-.3 0-.4-.2-.4-.4l-.1-.5zm4 2.3c0-.3.2-.4.4-.4h6.3c.2 0 .3.2.3.4v.5c0 .3-.2.4-.4.4h-6.2c-.2 0-.4-.2-.4-.4v-.5z" fill="#00ADD8"/>
  <path d="M28.5 19.3c-1.5.4-2.5.7-4 1.1-.2.1-.3.1-.4-.2-.2-.3-.4-.5-.7-.7-.9-.5-1.8-.4-2.6.2-1 .7-1.4 1.7-1.4 2.9 0 1.2.8 2.1 2 2.3 1 .1 1.8-.2 2.5-1 .1-.2.3-.4.4-.6h-2.7c-.3 0-.4-.2-.3-.5.2-.5.5-1.2.7-1.6.1-.1.2-.3.4-.3h5c0 .5 0 1-.1 1.5-.2 1-.7 2-1.4 2.8-1.1 1.3-2.5 2.1-4.2 2.3-1.4.1-2.6-.2-3.7-1.1-1-.9-1.5-2-1.6-3.3-.1-1.6.4-3 1.4-4.2 1.1-1.3 2.6-2.1 4.3-2.3 1.3-.1 2.4.1 3.4.9.6.5 1 1.1 1.3 1.8.1.2 0 .3-.2.3z" fill="#00ADD8"/>
</svg>