<svg xmlns="http://www.w3.org/2000/svg" viewBox="0 0 40 40" fill="none">
  <rect width="40" height="40" rx="8" fill="#F7DF1E" fill-opacity="0.15"/>
  <rect x="9" y="9" width="22" height="22" rx="2" fill="#F7DF1E"/>
  <path d="M17.2 27.5c.4.7.8 1.2 1.7 1.2.7 0 1.2-.4 1.2-.9 0-.6-.4-.9-1.1-1.2l-.4-.2c-1.1-.5-1.8-1.1-1.8-2.3 0-1.2.9-2 2.3-2 1 0 1.7.3 2.2 1.2l-1.2.8c-.3-.5-.5-.7-1-.7-.5 0-.7.3-.7.6 0 .4.3.6.9.9l.4.2c1.3.5 2 1.1 2 2.4 0 1.4-1.1 2.1-2.5 2.1-1.4 0-2.3-.7-2.8-1.6l1.3-.7zM24.7 27.3c.3.5.7 1 1.3 1 .6 0 .9-.2.9-.8v-4.4h1.6v4.4c0 1.3-.8 2-2.4 2-1.3 0-2-.7-2.4-1.5l1-.7z" fill="#323330"/>
</svg>