<svg xmlns="http://www.w3.org/2000/svg" viewBox="0 0 40 40" fill="none">
  <rect width="40" height="40" rx="8" fill="#FF2D20" fill-opacity="0.1"/>
  <path d="M11 14.5c0-.2.1-.3.2-.4l3.5-2c.2-.1.4-.1.5 0l3.5 2c.1.1.2.2.2.4v7.3l3-1.7v-3.4c0-.2.1-.3.2-.4l3.5-2c.2-.1.4-.1.5 0l3.5 2c.2.1.2.2.2.4v4c0 .2-.1.3-.2.4l-3.5 2c-.2.1-.4.1-.5 0l-3-1.7-3 1.7c-.2.1-.4.1-.5 0l-3.5-2c-.2-.1-.2-.2-.2-.4v-3.4l-3-1.7v7.3c0 .2-.1.3-.2.4l-3.5 2c-.2.1-.4.1-.5 0l-3.5-2c-.2-.1-.2-.2-.2-.4v-4c0-.2.1-.3.2-.4l3.5-2z" fill="#FF2D20"/>
</svg>