<svg xmlns="http://www.w3.org/2000/svg" viewBox="0 0 40 40" fill="none">
  <rect width="40" height="40" rx="8" fill="#339933" fill-opacity="0.1"/>
  <path d="M20 8.5c-.4 0-.7.1-1 .3l-7.2 4.2c-.6.4-1 1-1 1.7v8.4c0 .7.4 1.3 1 1.7l1.9 1.1c.9.5 1.3.5 1.7.5 1.4 0 2.2-.8 2.2-2.3v-8.3c0-.1-.1-.2-.3-.2h-1.1c-.2 0-.3.1-.3.2v8.3c0 .7-.7 1.3-1.8.8l-2-.2c-.1-.1-.2-.2-.2-.3v-8.4c0-.1 0-.3.2-.3l7.2-4.1c.1-.1.3-.1.4 0l7.2 4.1c.1.1.2.2.2.3v8.4c0 .1 0 .3-.2.3l-7.2 4.2c-.1.1-.3.1-.4 0l-1.8-1.1c-.1-.1-.2-.1-.4 0-.9.5-1.1.6-2 .9-.2.1-.5.2.1.5l2.4 1.4c.3.2.7.3 1 .3.4 0 .7-.1 1-.3l7.2-4.2c.6-.4 1-1 1-1.7v-8.4c0-.7-.4-1.3-1-1.7l-7.2-4.2c-.3-.2-.6-.3-1-.3z" fill="#339933"/>
</svg>