<svg xmlns="http://www.w3.org/2000/svg" viewBox="0 0 40 40" fill="none">
  <rect width="40" height="40" rx="8" fill="#336791" fill-opacity="0.1"/>
  <path d="M28.5 18.5c-.3-1-1-1.5-1.5-2.5.5-1.5.5-3-.5-4-1.5-1.5-4-1-5.5-.5-.8-.3-1.7-.5-2.5-.5-1.2 0-2.3.3-3 1-1-.3-2.5-.5-3.5.2-1.2.8-1.5 2.5-1.2 4-.8 1-1.3 2.2-1.2 3.8.2 2.5 1.5 4 3 4.5.3 1 1 1.8 2 2v2c-1.5.2-2.5.5-2.5 1.2 0 .8 1.5 1.3 3.5 1.3s3.5-.5 3.5-1.3c0-.7-1-1-2.5-1.2v-2c.8-.2 1.5-.8 1.8-1.5 1 .2 2 0 2.8-.5 1.2-.8 1.8-2.2 2-3.8.3-1 .1-2-.2-2.7z" fill="#336791"/>
</svg>