<svg xmlns="http://www.w3.org/2000/svg" viewBox="0 0 40 40" fill="none">
  <rect width="40" height="40" rx="8" fill="#3776AB" fill-opacity="0.1"/>
  <path d="M19.9 8c-5.3 0-5 2.3-5 2.3v2.4h5.1v.7h-7.1S9 13 9 18.4s3.4 5.2 3.4 5.2h2v-2.5c0-2.3 2-2.3 2-2.3h5c1.2 0 2.2-1 2.2-2.2v-4.7c0-2.1-1.7-3.5-3.7-3.9zm-2.8 1.6c.5 0 .9.4.9.9s-.4.9-.9.9-.9-.4-.9-.9.4-.9.9-.9z" fill="#3776AB"/>
  <path d="M20.1 32c5.3 0 5-2.3 5-2.3v-2.4h-5.1v-.7h7.1s3.9.4 3.9-5s-3.4-5.2-3.4-5.2h-2v2.5c0 2.3-2 2.3-2 2.3h-5c-1.2 0-2.2 1-2.2 2.2v4.7c0 2.1 1.7 3.5 3.7 3.9zm2.8-1.6c-.5 0-.9-.4-.9-.9s.4-.9.9-.9.9.4.9.9-.4.9-.9.9z" fill="#FFD43B"/>
</svg>